<svg width="583" height="523" viewBox="0 0 583 523" fill="none" xmlns="http://www.w3.org/2000/svg">
<path d="M471.132 436.936L469.615 435.441C487.898 416.752 496.164 416.346 520.705 415.129L524.657 414.937C527.455 414.787 530.103 414.68 532.602 414.573C559.984 413.377 570.236 412.929 575.875 386.038C582.39 355.132 581.258 299.706 576.153 269.312C572.33 246.373 556.716 233.729 540.185 220.337C528.224 210.661 515.857 200.644 508.403 186.376C492.021 155.022 511.842 104.337 529.334 59.5907C537.28 39.2999 544.777 20.1197 547.703 5.38219L549.839 5.78801C546.87 20.7391 539.352 39.962 531.364 60.381C514.042 104.679 494.391 154.894 510.346 185.394C517.587 199.256 529.783 209.145 541.573 218.692C557.678 231.721 574.337 245.22 578.31 268.949C583.436 299.535 584.568 355.324 578.011 386.423C572.009 414.937 560.518 415.449 532.73 416.667L524.806 417.03L520.855 417.222C496.89 418.439 488.838 418.845 471.132 436.936Z" fill="white"/>
<path d="M462.738 438.816L461.243 437.299C479.825 418.803 487.685 418.076 513.7 415.941L519.701 415.471C547.468 413.335 556.738 412.587 562.419 386.316C569.596 353.787 571.326 298.745 566.135 268.672C562.12 245.177 546.037 232.511 529.014 219.034C516.519 209.166 503.618 198.935 495.951 184.155C479.761 152.971 499.881 103.974 517.608 60.7442C526.152 39.9835 534.161 20.3975 537.13 5.21143L539.266 5.61724C536.276 21.0596 528.181 40.7524 519.637 61.5986C502.059 104.316 482.153 152.907 497.873 183.215C505.348 197.59 518.078 207.671 530.381 217.389C546.977 230.525 564.128 244.109 568.293 268.33C573.504 298.702 571.753 354.064 564.555 386.786C558.425 414.552 547.895 415.428 519.701 417.607L513.935 418.076C487.791 420.298 480.764 420.874 462.738 438.816Z" fill="white"/>
<path d="M457.761 443.344L456.18 441.892C472.712 423.715 479.568 422.092 503.17 418.739H503.875C534.033 414.467 540.334 413.549 546.464 387.341C554.858 351.651 562.761 298.852 557.506 267.54C553.427 243.17 536.148 229.949 517.758 215.937C504.345 205.706 490.483 195.134 482.388 179.82C466.027 148.807 487.215 101.817 505.882 60.3599C515.152 39.8128 523.888 20.419 527.092 5.10477L529.227 5.53194C525.981 21.0811 517.181 40.5817 507.869 61.2356C489.372 102.244 468.398 148.807 484.374 178.816C492.234 193.767 505.904 204.147 519.125 214.25C537.002 227.877 555.435 242.016 559.706 267.198C565.025 298.809 557.058 351.95 548.643 387.833C542.235 415.471 534.888 416.496 504.259 420.853H503.554C479.996 424.185 473.844 425.638 457.761 443.344Z" fill="white"/>
<path d="M455.647 449.773L453.66 448.961C461.072 430.657 476.172 425.873 490.739 421.195C505.69 416.475 519.723 412.011 526.835 394.262C531.214 383.347 533.072 369.72 534.845 356.521C535.946 347.079 537.586 337.709 539.757 328.455C540.59 325.251 541.509 322.048 542.427 318.673C547.318 301.201 552.359 283.132 548.942 265.831C543.986 240.756 525.212 226.702 505.348 211.815C488.71 199.363 471.516 186.483 463.635 166.62C451.375 135.65 471.922 97.7378 491.786 61.0648C502.871 40.6031 513.358 21.252 517.16 4.5708L519.296 5.0407C515.408 22.1277 504.879 41.4788 493.665 62.09C474.036 98.3999 453.746 135.799 465.621 165.83C473.268 185.052 490.226 197.868 506.63 210.106C525.853 224.566 545.93 239.539 551.035 265.404C554.559 283.217 549.433 301.543 544.499 319.25C543.581 322.539 542.662 325.785 541.829 328.989C539.676 338.143 538.057 347.414 536.981 356.756C535.165 370.062 533.307 383.838 528.822 394.988C521.325 413.677 506.117 418.482 491.401 423.181C476.685 427.88 462.674 432.387 455.647 449.773Z" fill="white"/>
<path d="M455.433 458.017L453.297 457.547C456.928 441.806 465.621 437.193 475.681 431.917C479.619 429.904 483.441 427.672 487.129 425.232C499.646 416.688 500.692 413.548 504.579 402.015C505.177 400.263 505.84 398.298 506.609 396.098C510.218 385.932 513.016 374.996 515.536 364.423C518.376 352.071 521.942 339.896 526.216 327.964C527.433 324.781 528.736 321.556 530.06 318.224C537.237 300.347 544.67 281.914 541.317 263.46C536.425 236.634 515.515 221.725 493.366 205.92C475.019 192.784 456.074 179.35 447.53 158.439C435.014 127.832 457.547 92.2271 479.312 57.754C491.529 38.3816 503.063 20.184 507.463 4.20761L509.599 4.76294C505.113 21.1451 493.516 39.535 481.213 58.9929C459.726 92.996 437.492 128.153 449.602 157.734C457.889 178.004 476.578 191.332 494.669 204.232C516.177 219.568 538.433 235.438 543.495 263.119C546.955 282.128 539.416 300.902 532.111 319.057C530.787 322.346 529.484 325.593 528.288 328.775C524.052 340.656 520.535 352.782 517.758 365.085C515.131 375.765 512.397 386.7 508.787 396.953C508.018 399.089 507.356 401.096 506.758 402.848C502.892 414.317 501.589 418.162 488.475 427.133C484.732 429.63 480.845 431.905 476.834 433.946C466.753 439.029 458.85 443.237 455.433 458.017Z" fill="white"/>
<path d="M456.608 467.415L454.472 467.244C455.54 453.34 463.229 440.567 470.641 428.222C476.45 418.568 482.473 408.572 485.357 398.021C489.073 384.565 497.254 367.905 505.925 350.284C520.876 319.677 537.963 284.99 533.969 260.577C529.228 231.849 504.772 215.168 481.128 199.021C460.922 185.223 440.012 170.977 430.785 149.148C417.97 118.648 442.661 85.6273 466.625 53.7173C480.081 35.7972 492.79 18.8811 497.873 3.48143L499.902 4.16491C494.691 19.885 481.897 36.9293 468.334 54.9988C444.732 86.4389 420.319 118.947 432.75 148.315C441.742 169.674 462.375 183.643 482.324 197.27C506.352 213.652 531.193 230.611 536.084 260.214C540.227 285.31 523.012 320.317 507.826 351.202C499.283 368.738 491.081 385.376 487.429 398.576C484.438 409.405 478.372 419.529 472.477 429.311C464.852 442.062 457.633 454.023 456.608 467.415Z" fill="white"/>
<path d="M456.394 477.518C455.839 453.681 457.697 417.414 463.143 394.112C467.586 375.017 480.807 356.221 494.819 336.315C512.888 310.685 531.556 284.071 529.121 257.288C526.408 227.513 497.937 208.397 470.405 189.943C450.627 176.658 430.166 162.946 420.063 145.474C400.242 111.3 427.346 80.6933 453.575 51.1541C467.629 35.3486 482.131 19.116 488.368 2.81923L490.355 3.56679C483.947 20.1412 469.338 36.6302 455.177 52.5638C429.546 81.5263 402.848 111.493 421.9 144.406C431.767 161.494 451.119 174.309 471.58 188.171C499.539 206.902 528.437 226.296 531.257 257.095C533.756 284.584 514.853 311.453 496.549 337.468C482.687 357.183 469.572 375.914 465.215 394.496C459.812 417.649 457.975 453.681 458.53 477.39L456.394 477.518Z" fill="white"/>
<path d="M460.559 487.77H458.423C458.551 473.737 453.66 460.452 448.94 447.616C442.981 431.362 436.808 414.574 440.631 396.056C445.202 374.035 463.357 353.124 480.914 332.94C502.444 308.164 524.7 282.534 522.692 254.447C520.449 223.327 488.774 202.673 458.124 182.703C435.484 167.923 414.061 153.975 403.489 136.034C382.45 100.386 411.583 73.5595 439.798 47.6086C455.369 33.2555 471.473 18.4325 478.949 2.28526L480.893 3.18234C473.161 19.6927 456.907 34.6652 441.123 49.1678C412.31 75.6954 385.099 100.771 405.261 134.923C415.599 152.437 436.787 166.257 459.235 180.887C490.312 201.157 522.435 222.088 524.742 254.276C526.878 283.26 504.281 309.211 482.452 334.307C465.087 354.299 447.103 374.889 442.66 396.461C438.965 414.381 444.796 430.144 450.884 446.847C455.732 459.876 460.687 473.332 460.559 487.77Z" fill="white"/>
<path d="M459.961 497.894C456.48 486.083 448.833 474.143 440.738 461.584C427.56 441.016 413.933 419.721 418.589 397.914C423.651 374.227 445.459 352.655 466.561 331.702C491.679 306.819 517.673 281.103 516.028 251.564C515.046 233.644 493.025 215.617 478.458 203.699L473.332 199.427C465.429 192.763 455.732 186.078 445.565 178.965C423.95 164.014 399.43 147.119 387.213 126.743C364.957 89.7068 395.992 66.3189 425.979 43.7214C443.066 30.9061 460.73 17.5142 469.423 1.55916L471.303 2.58439C462.396 18.9452 444.54 32.4867 427.261 45.4301C396.675 68.4762 367.798 90.2835 389.029 125.654C401.032 145.624 425.339 162.412 446.697 177.214C457.014 184.348 466.753 191.076 474.72 197.782L479.825 202.054C494.776 214.207 517.139 232.576 518.271 251.457C519.958 281.957 493.623 308.015 468.163 333.218C447.295 353.851 425.723 375.209 420.789 398.277C416.304 419.23 429.696 440.14 442.639 460.346C450.798 473.161 458.53 485.164 462.097 497.253L459.961 497.894Z" fill="white"/>
<path d="M460.346 506.843C454.984 493.601 443.259 480.999 430.657 467.671C412.673 448.449 394.069 428.628 395.65 406.18C397.786 376.491 425.125 353.039 451.567 330.356C479.867 306.114 509.108 281.039 505.605 249.193C501.717 213.758 467.565 193.532 434.544 173.967C405.539 156.88 375.551 139.045 365.47 110.895C355.559 83.1282 361.839 73.7944 387.128 57.6686C394.582 52.9269 401.673 48.9969 408.486 45.195C428.414 34.1526 445.629 24.6265 459.747 1.21733L461.563 2.30663C447.253 26.2071 429.802 35.8826 409.597 47.16C402.762 50.9405 395.692 54.8492 388.238 59.5695C363.654 75.2255 357.93 83.7903 367.435 110.254C377.26 137.679 406.927 155.235 435.591 172.194C469.06 192.015 503.682 212.52 507.677 249.086C511.308 282.171 481.619 307.609 452.934 332.214C426.812 354.491 399.793 377.538 397.764 406.329C396.248 427.859 414.531 447.359 432.195 466.134C444.839 479.611 456.779 492.362 462.289 505.968L460.346 506.843Z" fill="white"/>
<path d="M458.829 514.319C446.847 489.671 435.121 479.803 418.909 466.134C413.762 461.862 407.91 456.885 401.523 451.012C390.139 440.567 375.124 424.698 376.064 407.675C377.794 376.598 408.294 352.719 437.791 329.651C468.889 305.366 501.183 280.035 497.702 246.95C493.815 210.256 457.74 189.281 422.84 168.99C392.275 151.241 360.685 132.873 350.22 103.868C344.132 98.9123 340.779 93.4872 340.266 87.763C339.711 81.569 342.402 74.9478 348.447 68.0275L348.682 67.8353L373.074 52.158C381.19 47.8862 388.794 44.3407 396.162 41.0301C416.88 31.6536 434.8 23.5799 449.965 0.661987L451.759 1.83672C436.231 25.3314 418.076 33.4691 397.038 42.9737C389.712 46.2843 382.087 49.7017 374.163 53.9948L349.963 69.544C344.431 75.9516 341.89 82.0175 342.381 87.5708C342.851 92.761 346.033 97.7589 351.8 102.394L352.035 102.565V102.864C362.223 131.292 393.578 149.533 423.907 167.154C459.278 187.701 495.822 208.953 499.817 246.715C503.426 280.996 470.726 306.52 439.115 331.317C410.003 354.107 379.887 377.687 378.2 407.803C377.303 423.907 391.912 439.286 402.976 449.431C409.383 455.283 415.15 460.11 420.276 464.51C436.701 478.329 448.577 488.325 460.751 513.379L458.829 514.319Z" fill="white"/>
<path d="M454.835 519.723C441.187 493.9 427.581 483.669 408.785 469.551C402.591 464.895 395.586 459.64 388.003 453.318C378.221 445.181 357.845 428.2 358.827 408.785C360.45 376.747 393.236 352.569 425.039 329.224C458.359 304.704 492.832 279.33 489.287 245.391C485.335 207.799 447.808 186.27 411.498 165.445C379.673 147.204 346.76 128.323 335.952 98.5278C329.694 93.5726 326.255 88.1474 325.721 82.4233C325.166 76.2506 328.007 69.608 334.136 62.7519L334.393 62.5169L359.81 48.057C368.353 44.0202 376.47 40.9873 384.244 38.0611C405.603 30.0516 423.95 23.11 439.884 0.341537L441.635 1.55899C425.317 24.9041 406.628 31.9312 385.013 40.0048C377.26 42.9096 369.25 45.9212 360.792 49.8939L335.61 64.2256C329.972 70.6332 327.366 76.6351 327.857 82.167C328.327 87.3572 331.573 92.3551 337.511 96.99L337.746 97.1608L337.853 97.4599C348.297 126.679 380.976 145.41 412.609 163.523C449.367 184.625 487.364 206.432 491.444 245.113C495.139 280.27 460.153 306.007 426.342 330.89C395.009 353.936 362.629 377.879 361.07 408.828C360.151 427.175 379.951 443.686 389.477 451.546C397.017 457.804 404.001 463.058 410.174 467.693C428.478 481.448 442.938 492.319 456.843 518.591L454.835 519.723Z" fill="white"/>
<path d="M447.701 522.585C433.626 495.865 418.162 485.079 398.576 471.324C391.634 466.476 383.753 460.965 375.316 454.237C363.398 444.818 343.47 429.076 344.517 409.255C346.268 376.576 380.378 352.334 413.356 328.882C447.936 304.32 483.691 278.903 479.996 244.451C475.916 206.347 437.534 184.518 400.391 163.416C367.777 144.877 334.072 125.718 323.073 95.4096C316.815 90.433 313.354 85.0079 312.842 79.2624C312.265 73.0684 315.084 66.4471 321.214 59.5055L321.513 59.2706L347.55 45.5369C356.585 41.671 364.957 38.9584 373.074 36.3099C394.646 29.2829 413.292 23.217 429.482 0L431.233 1.21745C414.638 25.0111 395.671 31.1197 373.736 38.3176C365.662 40.9448 357.332 43.6573 348.447 47.4378L322.667 61.0434C317.049 67.451 314.444 73.4955 314.956 79.0488C315.448 84.2603 318.694 89.2583 324.632 93.8931L324.888 94.0854L324.995 94.3844C335.674 124.094 369.079 143.125 401.459 161.536C439.051 182.895 477.924 205.023 482.11 244.195C485.955 279.907 449.666 305.687 414.595 330.612C382.023 353.765 348.383 377.602 346.653 409.362C345.67 428.051 365.043 443.387 376.555 452.528C384.949 459.171 392.446 464.404 399.708 469.487C419.529 483.328 435.185 494.242 449.517 521.432L447.701 522.585Z" fill="white"/>
<path d="M436.851 522.927C422.775 496.485 407.248 485.399 387.597 471.367C380.4 466.219 372.967 460.922 364.68 454.28C352.056 444.156 333.004 428.841 333.944 409.426C335.546 376.705 369.699 352.398 402.719 328.882C437.299 304.277 473.054 278.839 469.444 244.366C465.429 206.155 426.898 184.561 389.605 163.501C356.969 145.176 323.137 125.953 312.116 95.73C305.9 90.7534 302.483 85.3069 301.949 79.54C301.372 73.3246 304.085 66.7247 310.172 59.7404L310.471 59.5055L336.635 45.7504C345.777 41.8845 354.256 39.1719 362.458 36.5448C384.137 29.6246 402.848 23.7295 418.931 0.234894L420.704 1.45234C404.193 25.4382 385.163 31.5469 363.035 38.5952C354.876 41.201 346.461 43.8922 337.404 47.6941L311.496 61.2996C305.943 67.7073 303.401 73.7731 303.914 79.3478C304.405 84.5807 307.63 89.6 313.525 94.2989L313.782 94.4911V94.7688C324.461 124.5 358.037 143.403 390.502 161.664C428.265 182.895 467.287 204.852 471.409 244.173C475.147 279.864 438.88 305.687 403.809 330.655C371.194 353.851 337.468 377.858 335.931 409.554C335.034 427.88 353.594 442.767 365.833 452.635C374.056 459.256 381.468 464.553 388.644 469.722C408.529 483.904 424.228 495.118 438.538 522.008L436.851 522.927Z" fill="white"/>
<path d="M423.032 522.926C409.512 497.296 394.924 485.527 376.448 470.576C370.041 465.429 363.633 460.132 356.328 453.724C345.158 443.835 326.426 427.239 327.259 408.871C328.69 376.576 361.796 352.099 393.813 328.455C427.41 303.636 462.161 277.963 458.594 243.853C454.621 205.898 416.282 184.988 379.204 164.825C346.674 147.076 312.991 128.729 301.992 98.7841C295.776 93.8075 292.337 88.3824 291.803 82.6155C291.227 76.4215 293.939 69.8003 300.027 62.8373L300.304 62.6024L326.511 48.2706C335.525 44.2338 343.962 41.3077 352.142 38.467C374.013 30.8846 392.895 24.3275 408.956 0.939621L410.708 2.15707C394.261 26.1002 375.06 32.7642 352.847 40.6028C344.73 43.4222 336.336 46.327 327.473 50.2784L301.522 64.5033C295.99 70.9109 293.427 76.9768 293.961 82.5301C294.495 88.0834 297.677 92.7609 303.572 97.4812L303.807 97.6735L303.914 97.9725C314.593 127.319 347.956 145.517 380.25 163.138C417.799 183.621 456.65 204.83 460.73 243.896C464.425 279.202 429.183 305.238 395.094 330.42C363.483 353.786 330.783 377.943 329.416 409.212C328.647 426.663 346.866 442.831 357.759 452.485C364.957 458.893 371.493 464.126 377.815 469.252C396.461 484.374 411.22 496.292 424.954 522.264L423.032 522.926Z" fill="white"/>
<path d="M406.585 522.884C399.751 508.531 385.013 494.221 369.421 479.056C346.14 456.437 322.069 433.028 323.393 407.632C325.038 376.107 356.286 351.501 386.508 327.686C418.546 302.504 451.524 276.425 447.701 242.935C443.429 205.578 405.539 185.907 368.887 166.876C336.657 150.152 303.337 132.852 292.209 103.462C286.015 98.5707 282.598 93.1669 282.043 87.4428C281.466 81.2487 284.178 74.6275 290.308 67.6005L290.565 67.3655L316.836 52.094C325.743 47.8223 334.158 44.533 342.274 41.4146C364.381 32.8711 383.475 25.5237 399.473 1.79411L401.224 2.99021C384.864 27.2751 365.491 34.7507 343.043 43.4224C334.948 46.5407 326.597 49.83 317.84 54.1017L291.803 69.2665C286.207 75.6741 283.644 81.8041 284.178 87.3787C284.67 92.5689 287.895 97.5241 293.768 102.095L294.003 102.287V102.565C304.683 131.356 337.789 148.508 369.763 165.103C406.927 184.326 445.352 204.339 449.73 242.828C453.66 277.536 420.148 303.957 387.79 329.502C357.888 352.996 327.088 377.324 325.486 407.867C324.205 432.301 347.934 455.348 370.874 477.646C386.615 492.939 401.481 507.399 408.465 522.094L406.585 522.884Z" fill="white"/>
<path d="M388.11 522.798C382.707 508.766 371.023 494.092 358.464 478.564C339.434 454.878 319.762 430.4 321.813 406.073C324.354 375.936 352.868 351.202 380.442 327.28C411.669 300.197 441.165 274.631 436.872 241.845C432.088 205.322 394.796 187.274 358.721 169.802C326.875 154.381 293.961 138.426 282.705 109.763C276.553 104.957 273.136 99.6385 272.581 93.957C271.961 87.7416 274.717 81.0136 280.932 73.9653L281.167 73.773L307.502 57.2413C316.345 52.6065 324.696 48.9755 332.791 45.4726C355.175 35.7544 374.483 27.3818 390.46 3.05412L392.254 4.22885C375.978 29.0905 356.371 37.5913 333.688 47.4163C325.636 50.9191 317.306 54.5288 308.613 59.0995L282.448 75.5458C276.767 82.1029 274.161 88.2543 274.717 93.8289C275.208 98.955 278.433 103.825 284.243 108.332L284.499 108.502L284.606 108.78C295.435 136.845 328.092 152.651 359.639 167.944C396.269 185.757 434.053 203.976 438.987 241.61C443.429 275.485 412.118 302.632 381.852 328.904C354.598 352.526 326.319 376.982 323.949 406.244C321.962 429.738 341.356 453.874 360.13 477.24C372.711 492.896 384.586 507.698 390.033 522.094L388.11 522.798Z" fill="white"/>
<path d="M368.161 522.692C364.381 508.531 356.008 493.537 347.144 477.668C333.474 453.19 319.378 427.88 321.919 404.215C324.995 375.872 350.455 351.01 375.06 326.96C403.83 298.959 430.999 272.346 426.171 240.713C420.661 205.279 384.116 189.068 348.746 173.412C317.242 159.507 284.84 145.176 273.435 117.409C267.305 112.732 263.909 107.52 263.332 101.903C262.691 95.6659 265.468 88.8738 271.876 81.6973L272.089 81.5264L298.51 63.585C307.246 58.523 315.597 54.4648 323.628 50.5562C346.311 39.4923 365.897 29.9663 381.745 4.80569L383.539 5.95907C367.371 31.5896 347.528 41.2865 324.568 52.4785C316.558 56.3871 308.25 60.4239 299.642 65.2937L273.392 83.1283C267.583 89.7922 264.849 95.9436 265.511 101.604C266.023 106.666 269.227 111.45 275.015 115.807L275.25 115.978L275.357 116.256C286.336 143.467 318.481 157.713 349.579 171.468C385.462 187.38 422.562 203.805 428.243 240.393C433.327 273.136 404.492 301.287 376.619 328.519C352.27 352.292 327.109 376.875 324.098 404.471C321.599 427.474 335.568 452.464 349.066 476.642C357.994 492.64 366.452 507.762 370.297 522.158L368.161 522.692Z" fill="white"/>
<path d="M347.315 522.563C345.393 508.36 340.715 493.302 335.781 477.347C327.921 451.973 319.784 425.744 323.073 402.185C326.704 376.256 348.703 351.437 369.891 327.43C394.988 299.065 420.917 269.761 415.3 239.432C408.892 205.258 373.181 191.033 338.622 177.299C307.652 165.018 275.656 152.309 264.165 125.248C251.713 95.9434 265.02 85.7339 289.625 70.1847C298.169 64.7596 306.498 60.2529 314.508 55.8957C337.511 43.3794 357.354 32.5719 373.116 6.4715L374.953 7.58215C358.892 34.1097 338.793 45.0881 315.533 57.7325C307.545 62.0043 299.301 66.5964 290.757 71.9788C264.486 88.5746 254.896 97.9725 266.13 124.393C277.365 150.814 308.848 163.181 339.391 175.291C374.505 189.238 410.815 203.656 417.393 239.026C423.203 270.359 396.91 300.069 371.493 328.733C350.476 352.526 328.776 377.11 325.187 402.399C321.962 425.488 330.014 451.524 337.81 476.642C342.787 492.661 347.486 507.805 349.43 522.2L347.315 522.563Z" fill="white"/>
<path d="M328.22 522.414H326.084C326.084 508.851 325.123 494.883 324.098 480.06C322.24 453.105 320.317 425.21 324.696 400.071C328.669 377.132 346.909 352.676 364.551 329.032C387.32 298.489 410.857 266.921 404.514 238.086C397.273 205.151 362.352 193.019 328.605 181.272C298.211 170.721 266.792 159.785 255.066 133.706C242.358 105.47 256.562 93.829 280.804 77.1478C289.347 71.3169 297.549 66.3403 305.516 61.5346C328.818 47.4805 348.96 35.3701 364.658 8.26581L366.495 9.33375C350.519 36.9079 330.185 49.1679 306.691 63.3501C298.745 68.1558 290.522 73.111 282.085 78.9206C258.057 95.4309 245.049 106.089 257.074 132.83C268.416 158.076 299.407 168.841 329.352 179.264C363.676 191.204 399.174 203.528 406.671 237.638C413.228 267.412 389.37 299.386 366.324 330.313C348.831 353.808 330.741 378.007 326.853 400.434C322.582 425.317 324.44 453.084 326.298 479.932C327.259 494.755 328.22 508.787 328.22 522.414Z" fill="white"/>
<path d="M307.139 522.564L305.003 522.286C309.083 490.803 314.978 458.85 320.659 427.944C322.496 417.948 324.333 407.974 326.106 398.042C329.779 377.409 344.111 354.62 359.276 330.484C379.695 297.997 400.819 264.422 393.727 236.805C385.611 205.151 351.501 195.006 318.545 185.202C288.642 176.338 257.886 167.175 245.925 142.121C232.255 113.543 249.769 100.536 271.94 84.0681C280.355 77.81 288.557 72.4062 296.502 67.1733C320.104 51.6028 340.48 38.1467 356.136 10.0813L357.994 11.1065C342.125 39.6205 321.513 53.2047 297.698 68.9247C289.774 74.1576 281.594 79.6041 273.243 85.7554C248.787 103.91 235.566 115.444 247.868 141.16C259.424 165.36 289.796 174.394 319.164 183.13C352.719 193.105 387.512 203.421 395.821 236.249C403.125 264.742 381.767 298.745 361.113 331.595C346.055 355.559 331.83 378.178 328.22 398.405C326.447 408.337 324.61 418.333 322.774 428.307C317.092 459.149 311.219 491.188 307.139 522.564Z" fill="white"/>
<path d="M286.742 522.67L284.606 522.158C289.582 501.846 297.271 482.43 304.704 463.635C313.248 442.02 322.09 419.678 326.704 396.077C332.556 366.175 344.218 341.719 356.606 315.747C358.443 311.881 360.301 307.972 362.181 303.978C363.825 300.475 365.748 296.716 367.777 292.722C376.833 275.058 388.089 253.059 382.963 235.544C374.056 205.087 340.715 196.8 308.463 188.79C279.202 181.528 248.958 174.031 236.719 149.939C222.751 122.471 240.521 108.353 262.991 90.4971C271.321 83.8759 279.501 78.0663 287.404 72.4276C311.283 55.3405 331.894 40.7098 347.529 11.7259L349.408 12.7298C333.539 42.1622 311.731 57.7114 288.642 74.179C280.761 79.7963 272.602 85.5846 264.315 92.1844C242.593 109.421 225.442 123.048 238.684 148.977C250.474 172.194 280.248 179.584 309.04 186.718C341.869 194.877 375.829 203.293 385.077 234.946C390.438 253.272 378.969 275.678 369.742 293.704C367.713 297.656 365.79 301.415 364.167 304.896C362.288 308.89 360.429 312.799 358.592 316.665C345.777 343.62 334.735 366.922 328.946 396.504C324.269 420.276 315.384 442.725 306.797 464.425C299.343 483.135 291.611 502.486 286.742 522.67Z" fill="white"/>
<path d="M267.54 522.756L265.532 522.072C272.388 501.739 283.345 483.285 293.939 465.429C307.075 443.344 320.638 420.575 325.977 394.411C332.983 360.472 342.958 333.859 355.26 302.568C356.691 298.916 358.4 294.986 360.215 290.821C367.926 273.136 377.537 251.136 372.112 234.391C362.565 204.916 329.865 198.295 298.232 191.887C269.505 186.056 239.773 180.033 227.3 156.837C213.053 130.352 231.422 114.91 252.695 97.0326L253.763 96.1569C262.029 89.2153 270.167 83.0213 278.027 77.0408C302.141 58.715 322.88 42.8668 338.579 13.1354L340.48 14.1179C324.653 44.2978 302.632 61.1072 279.308 78.7495C271.47 84.7086 263.353 90.8813 255.152 97.7802L254.084 98.6773C232.725 116.661 215.745 130.865 229.179 155.812C241.183 178.132 270.402 184.07 298.659 189.794C330.89 196.308 364.21 203.058 374.141 233.729C379.823 251.243 370.04 273.67 362.18 291.675C360.365 295.819 358.678 299.727 357.247 303.337C344.987 334.499 335.055 361.006 328.07 394.795C322.624 421.237 308.954 444.241 295.733 466.475C285.203 484.288 274.332 502.636 267.54 522.756Z" fill="white"/>
<path d="M250.111 522.82L248.146 522.03C256.476 501.141 270.231 483.028 283.516 465.514C300.198 443.536 317.455 420.832 323.265 393.065C329.58 362.104 337.696 331.538 347.571 301.522C348.853 297.656 350.412 293.469 352.078 289.048C358.656 271.449 366.858 249.534 361.305 233.515C351.33 204.702 319.143 199.341 288.002 194.365C259.68 189.751 230.333 184.967 217.689 162.455C203.207 136.824 222.153 120.186 242.208 102.65L244.344 100.792C252.525 93.594 260.641 87.101 268.48 80.8429C291.761 62.218 313.76 44.533 329.374 14.353L331.275 15.3355C315.448 46.0281 293.277 63.7559 269.804 82.5089C261.987 88.767 253.892 95.3241 245.754 102.394L243.618 104.252C223.413 121.958 205.963 137.251 219.59 161.429C231.764 183.045 260.534 187.743 288.365 192.272C320.125 197.462 352.954 202.823 363.334 232.853C369.144 249.62 360.792 271.918 354.107 289.838C352.441 294.238 350.882 298.382 349.622 302.248C339.765 332.185 331.67 362.673 325.38 393.557C319.378 421.729 302.056 444.647 285.204 466.796C272.004 484.203 258.334 502.209 250.111 522.82Z" fill="white"/>
<path d="M235.01 522.841L233.045 522.008C242.23 500.201 258.099 482.174 273.435 464.745C293.213 442.254 311.881 421.003 317.882 392.125L320.232 380.763C325.785 353.701 331.04 328.156 338.75 300.774C339.925 296.609 341.399 292.102 343.022 287.361C348.981 269.12 355.837 248.445 350.455 232.725C340.736 204.083 308.698 199.854 277.621 195.753C249.556 192.058 220.508 188.235 207.735 166.278C193.105 141.139 211.772 124.308 231.529 106.473L234.412 103.868C242.55 96.4987 250.645 89.7921 258.462 83.299C281.957 63.9266 303.978 45.6008 319.613 15.0578L321.514 16.0403C305.665 46.925 283.409 65.4431 259.829 84.965C252.012 91.3726 243.938 98.122 235.843 105.469L232.96 108.075C213.865 125.29 195.817 141.566 209.572 165.21C221.832 186.248 250.346 190.007 277.92 193.638C309.574 197.91 342.317 202.182 352.441 232.084C357.973 248.466 351.074 269.505 345.008 288.066C343.449 292.807 341.975 297.271 340.736 301.393C333.069 328.69 327.921 354.214 322.261 381.232L319.912 392.617C313.824 421.985 294.067 444.433 275.058 466.134C259.808 483.456 244.067 501.354 235.01 522.841Z" fill="white"/>
<path d="M222.729 522.82L220.764 522.03C230.012 498.791 247.121 480.7 263.695 463.186C284.136 441.55 303.465 421.131 309.254 391.891C310.307 386.622 311.332 381.389 312.329 376.192C317.37 350.561 322.133 326.148 328.54 300.603C329.673 296.097 331.189 291.163 332.812 285.908C338.344 267.86 344.624 247.463 339.455 232.511C329.502 203.741 297.72 200.089 267.006 196.543C239.133 193.318 210.32 190.008 197.398 168.072C182.681 143.04 201.904 125.419 220.572 108.353L223.989 105.235C232.084 97.759 240.179 90.9242 247.997 84.3243C271.491 64.5034 293.576 45.8785 309.275 15.3568L311.176 16.3393C295.285 47.16 272.986 65.9985 249.364 85.9476C241.568 92.5474 233.494 99.3609 225.442 106.794L222.024 109.933C203.186 127.17 185.415 143.445 199.213 166.876C211.601 187.893 239.795 191.161 267.219 194.301C298.617 197.932 331.061 201.669 341.441 231.721C346.845 247.356 340.48 268.181 334.841 286.549C333.239 291.761 331.744 296.673 330.57 301.116C324.162 326.618 319.42 350.903 314.38 376.598C313.369 381.795 312.343 387.028 311.304 392.296C305.388 422.199 284.947 443.75 265.19 464.66C248.894 482.025 231.807 499.966 222.729 522.82Z" fill="white"/>
<path d="M212.819 520.535L210.832 519.744C220.102 496.25 237.424 478.18 254.169 460.73C274.652 439.371 294.003 419.209 299.877 389.883C301.863 379.908 303.786 369.827 305.623 360.087C309.318 340.651 313.12 320.552 317.776 300.603C318.844 295.968 320.339 290.906 321.898 285.545C327.024 267.988 332.812 248.125 327.772 233.473C318.032 205.13 286.912 200.772 256.818 196.543C229.564 192.72 201.285 188.769 188.598 167.132C173.946 142.292 192.293 125.397 211.729 107.499L214.72 104.594C222.558 97.3319 230.376 90.668 237.937 84.2176C261.025 64.5035 282.79 45.9 298.574 15.7414L300.454 16.7453C284.606 47.331 262.627 66.1481 239.389 85.9263C231.849 92.3339 224.053 99.0192 216.236 106.26L213.182 109.079C194.386 126.358 176.658 142.677 190.456 166.043C202.695 186.782 230.376 190.67 257.117 194.429C287.852 198.701 319.613 203.207 329.737 232.768C334.991 248.061 329.096 268.287 323.884 286.165C322.325 291.526 320.851 296.566 319.783 301.116C315.149 321.022 311.24 341.078 307.652 360.493C305.815 370.254 303.914 380.336 301.906 390.396C295.904 420.298 275.443 441.657 255.643 462.289C239.111 479.504 221.939 497.403 212.819 520.535Z" fill="white"/>
<path d="M204.254 514.234L202.289 513.443C211.623 489.949 229.222 472.221 246.224 455.048C267.027 434.053 286.677 414.21 292.444 384.885C294.302 375.337 297.57 362.971 300.988 349.878C311.325 310.706 324.183 261.944 315.341 235.459C306.071 207.692 276.276 202.118 247.441 196.735C221.362 191.866 194.386 186.825 182.147 165.445C167.88 140.498 185.971 123.667 205.108 105.832L207.372 103.697C214.869 96.6909 222.323 90.2619 229.478 84.0679C251.756 64.845 272.794 46.6901 288.023 17.1509L289.924 18.1334C274.503 48.0357 253.315 66.3188 230.888 85.6912C223.712 91.8639 216.3 98.2715 208.846 105.256L206.56 107.392C187.338 125.354 170.571 140.882 184.006 164.377C195.753 184.881 222.238 189.837 247.847 194.621C277.258 200.11 307.652 205.792 317.37 234.754C326.405 261.858 313.461 310.962 303.059 350.412C299.599 363.462 296.353 375.786 294.516 385.269C288.642 415.172 267.839 436.231 247.719 456.544C230.888 473.588 213.438 491.187 204.254 514.234Z" fill="white"/>
<path d="M196.8 504.665L194.835 503.832C204.638 480.85 222.217 463.25 239.197 446.163C261.474 423.886 282.512 402.826 287.126 370.831C288.536 361.134 291.398 348.468 294.388 335.076C301.842 301.863 311.133 260.534 304.661 236.826C297.442 210.405 267.775 202.161 239.09 194.108C217.56 188.107 195.305 181.912 182.959 167.987C162.241 144.62 175.804 127.661 197.205 106.217C205.963 97.4599 214.72 89.7281 223.199 82.2311C243.746 64.1189 263.161 46.9892 277.536 19.1373L279.437 20.1198C264.87 48.3348 245.263 65.5713 224.609 83.833C216.172 91.3086 207.522 99.0191 198.701 107.734C177.491 129.092 165.039 144.556 184.561 166.577C196.479 180.033 218.436 186.142 239.667 192.058C268.928 200.196 299.194 208.611 306.712 236.206C313.333 260.427 303.978 302.034 296.46 335.482C293.469 348.831 290.629 361.454 289.24 371.087C284.52 403.766 262.264 426.065 240.713 447.616C223.861 464.617 206.432 482.067 196.8 504.665Z" fill="white"/>
<path d="M190.178 492.597L188.213 491.743C198.017 469.615 215.98 452.635 233.409 436.21C256.647 414.275 278.582 393.493 282.32 361.86C283.153 354.62 284.456 345.82 285.951 336.507C290.864 304.469 297.015 264.422 290.885 240.542C284.221 214.506 257.245 204.532 231.08 194.877C211.324 187.551 190.905 179.926 179.371 165.488C160.148 141.331 173.412 124.329 192.699 104.615C200.879 96.2426 209.017 88.9593 216.898 81.8895C235.929 64.8025 253.892 48.6766 266.985 21.9141L268.907 22.8539C255.686 49.9582 237.574 66.1481 218.393 83.4487C210.533 90.4971 202.438 97.7804 194.301 106.089C175.761 125.034 163.01 141.352 181.122 164.142C192.272 178.196 212.413 185.629 231.892 192.848C258.505 202.695 286.015 212.861 292.957 239.987C299.172 264.293 292.957 304.491 288.044 336.806C286.635 346.097 285.289 354.897 284.435 362.095C280.611 394.561 257.437 416.432 234.882 437.791C217.646 454.045 199.769 470.875 190.178 492.597Z" fill="white"/>
<path d="M184.112 478.799L182.211 477.881C192.656 456.33 210.725 440.204 228.218 424.612C250.239 404.983 270.936 386.423 277.343 358.186C282.918 333.303 282.619 270.615 274.951 245.284C267.283 219.952 244.152 208.675 221.746 197.761C201.755 188 181.165 177.918 171.019 157.991C160.874 138.063 173.433 120.1 185.33 106.431C194.311 96.3094 203.935 86.7778 214.143 77.8952C230.418 63.2217 244.472 50.5346 256.604 24.8827L258.526 25.7798C246.224 51.8375 232.02 64.6527 215.574 79.4971C205.43 88.308 195.87 97.7685 186.953 107.819C175.505 120.997 163.458 138.511 172.942 156.944C182.703 176.167 203.036 186.163 222.708 195.774C245.519 206.902 269.12 218.415 277.023 244.6C284.755 270.231 285.054 333.474 279.458 358.592C273.05 387.512 251.948 406.265 229.649 426.15C212.306 441.678 194.386 457.654 184.112 478.799Z" fill="white"/>
<path d="M178.41 464.04L176.509 463.037C190.605 436.68 203.442 423.907 226.873 405.24L233.665 399.879C256.22 382.151 271.107 370.446 274.14 341.398C276.596 317.904 268.65 273.328 262.243 249.15C255.472 223.712 235.907 210.939 215.253 197.398C199.875 187.338 183.984 176.957 174.095 160.938C157.585 134.24 173.775 116.234 190.926 97.1823L192.207 95.7512C198.615 88.6174 204.382 82.936 209.956 77.3186C224.245 63.0723 235.587 51.8162 246.266 28.1935L248.21 29.0692C237.36 53.1618 225.954 64.5461 211.494 78.9419C205.941 84.4738 200.195 90.1979 193.852 97.2677L192.549 98.7201C175.227 117.943 160.276 134.581 175.953 159.934C185.586 175.526 201.285 185.8 216.535 195.71C236.676 208.867 257.501 222.494 264.464 248.723C270.872 273.05 278.924 317.989 276.446 341.719C273.307 371.621 258.12 383.603 235.138 401.652L228.368 407.013C205.001 425.381 192.314 438.026 178.41 464.04Z" fill="white"/>
<path d="M172.75 449.047L170.891 448C185.501 422.028 198.081 410.195 222.558 391.869C225.314 389.733 228.09 387.79 230.803 385.825C251.649 370.639 269.654 357.546 270.338 330.719C270.722 316.067 263.225 296.545 256.625 279.18C253.08 269.911 249.748 261.175 247.74 253.699C241.162 229.244 224.908 214.591 207.671 199.106C194.429 187.188 180.738 174.864 172.109 157.734C156.41 126.615 180.994 99.489 204.745 73.2605C217.795 58.8647 230.119 45.2591 235.715 31.3546L237.702 32.1448C231.956 46.4125 219.525 60.1462 206.326 74.6915C183.045 100.322 158.973 126.978 174.01 156.773C182.447 173.54 196.009 185.736 209.102 197.504C225.805 212.456 243.063 228.069 249.684 253.144C251.67 260.513 254.981 269.206 258.505 278.411C265.19 295.883 272.751 315.704 272.367 330.783C271.662 358.55 253.251 372.048 231.956 387.555C229.244 389.52 226.488 391.506 223.733 393.578C199.619 411.712 187.188 423.416 172.75 449.047Z" fill="white"/>
<path d="M166.919 434.629L165.103 433.497C182.318 405.731 197.312 394.197 222.345 376.256C224.48 374.697 226.894 373.052 229.436 371.322C245.711 360.215 267.988 345.029 268.202 324.845C268.33 312.222 258.569 297.933 249.128 284.114C242.465 274.353 236.164 265.148 233.366 256.711C226.958 237.36 214.143 220.572 201.84 204.36C188.555 186.91 174.821 168.862 169.311 147.802C161.536 117.9 178.901 97.6093 197.312 76.037C208.205 63.2217 219.483 50.0006 225.271 34.4942L227.278 35.2417C221.362 51.0899 209.956 64.4819 198.935 77.4253C180.909 98.5705 163.886 118.541 171.383 147.268C176.786 167.901 189.772 184.988 203.549 203.058C216.001 219.418 228.859 236.356 235.395 256.027C238.107 264.186 244.301 273.285 250.88 282.897C260.513 296.993 270.466 311.582 270.338 324.867C270.103 346.225 247.292 361.732 230.653 373.073C228.111 374.803 225.719 376.448 223.583 377.986C198.786 395.756 183.92 407.162 166.919 434.629Z" fill="white"/>
<path d="M160.703 421.366L158.76 420.49C164.828 406.863 173.603 394.613 184.552 384.483C195.501 374.352 208.395 366.554 222.451 361.561C248.317 352.42 261.965 334.777 263.033 309.083C260.385 298.638 251.67 292.572 242.443 286.122C233.216 279.672 224.053 273.307 219.354 262.136V261.794C217.996 239.642 209.643 218.493 195.497 201.392C180.44 182.487 169.459 160.671 163.245 137.315C160.661 112.219 175.569 93.8717 189.986 76.1226C199.768 64.1403 209.828 51.7736 214.72 37.335L216.855 38.0399C211.729 52.8415 201.584 65.3364 191.759 77.4254C176.957 95.6445 162.967 112.838 165.445 136.888C171.591 159.908 182.426 181.41 197.27 200.046C211.603 217.462 220.065 238.961 221.448 261.474C225.933 271.982 234.968 278.283 243.703 284.371C253.315 291.077 262.392 297.399 265.19 308.72V308.869V309.019C264.101 335.76 249.962 354.107 223.156 363.569C209.377 368.474 196.736 376.126 186.001 386.061C175.266 395.996 166.659 408.006 160.703 421.366Z" fill="white"/>
<path d="M153.74 410.345L151.818 409.426C165.06 381.51 186.868 362.181 216.62 351.95C242.806 343.577 256.647 326.319 257.779 300.689C254.062 290.223 244.622 287.574 234.626 284.755C224.16 281.808 212.306 278.454 205.92 265.532L205.792 265.105C205.11 242.685 198.475 220.85 186.569 201.84C173.875 181.041 164.933 158.175 160.148 134.283C158.396 110.318 170.208 94.3844 182.724 77.5109C191.161 66.1267 199.811 54.3367 204.296 39.77L206.432 40.3894C201.926 55.3405 193.083 67.2374 184.518 78.8352C172.258 95.3669 160.661 111.001 162.348 134.026C167.078 157.6 175.889 180.167 188.384 200.708C200.465 219.956 207.21 242.071 207.927 264.785C213.929 276.767 224.737 279.736 235.203 282.747C245.668 285.759 255.835 288.578 259.872 300.24V300.432V300.646C258.761 327.323 244.43 345.264 217.261 354.043C188.128 363.996 166.748 382.963 153.74 410.345Z" fill="white"/>
<path d="M145.795 402.164L143.915 401.182C159.23 371.963 183.215 351.928 215.168 341.676C243.34 332.855 254.383 316.046 248.936 290.415C237.775 284.511 224.81 282.987 212.584 286.143H212.413H212.242C205.001 285.631 199.811 283.452 196.8 279.629C193.788 275.806 193.083 270.979 194.13 264.678C192.45 248.032 188.513 231.692 182.425 216.108C171.644 191.919 162.906 166.87 156.303 141.224C152.544 113.458 163.33 96.8193 174.757 79.1556C181.934 68.0704 189.367 56.5793 193.745 41.6282L195.881 42.2263C191.396 57.4764 183.899 69.0956 176.658 80.3303C165.445 97.6523 154.872 114.013 158.503 140.818C165.075 166.319 173.77 191.225 184.497 215.275C190.686 231.104 194.689 247.703 196.394 264.614V264.785C195.411 270.616 196.159 275.144 198.53 278.262C200.9 281.38 205.749 283.474 212.285 283.965C225.154 280.741 238.765 282.479 250.41 288.835L250.837 289.07V289.539C256.732 316.323 244.9 334.542 215.723 343.705C184.411 353.787 160.853 373.458 145.795 402.164Z" fill="white"/>
<path d="M136.653 397.572L134.774 396.59C150.173 367.285 174.33 347.464 206.603 337.81C234.968 329.267 246.16 312.522 240.777 286.742C228.241 281.725 214.28 281.588 201.648 286.357H201.328C193.596 286.613 188.085 284.905 184.903 281.252C181.72 277.6 180.994 272.709 182.105 266.13C180.221 249.344 176.695 232.782 171.575 216.685C162.445 191.502 154.933 165.762 149.084 139.622C145.923 112.582 155.641 96.3281 165.915 79.1343C172.322 68.3054 179.051 57.1347 183.173 42.4826L185.309 43.0593C181.037 58.0105 174.33 69.2879 167.816 80.2236C157.713 97.097 148.187 113.052 151.263 139.281C157.099 165.301 164.575 190.925 173.647 216.001C178.832 232.294 182.409 249.055 184.326 266.045V266.344C183.28 272.388 184.048 277.023 186.59 279.843C189.132 282.662 194.215 284.435 201.178 284.114C214.443 279.153 229.095 279.397 242.187 284.798L242.721 285.011L242.849 285.567C248.701 312.564 236.762 330.762 207.308 339.669C175.505 349.387 151.775 368.802 136.653 397.572Z" fill="white"/>
<path d="M126.465 397.081L124.586 396.098C139.9 366.922 163.929 347.251 195.988 337.639C224.053 329.096 235.331 312.265 230.397 286.506C217.598 281.583 203.426 281.583 190.627 286.506H190.307C182.553 286.827 177 285.161 173.754 281.53C170.507 277.899 169.695 272.986 170.721 266.386C168.463 249.642 165.001 233.081 160.362 216.834C152.373 191.545 145.41 165.573 139.857 139.622C136.846 112.731 146.265 95.9008 156.175 78.0662C162.113 67.3868 168.243 56.4939 172.323 42.6107L174.458 43.23C170.187 57.3268 164.121 68.3907 158.14 79.1128C148.358 96.627 139.131 113.159 142.036 139.28C147.632 165.039 154.509 190.969 162.498 216.172C167.176 232.581 170.666 249.305 172.942 266.216V266.515C171.981 272.581 172.814 277.194 175.42 280.056C178.025 282.918 183.13 284.605 190.136 284.328C203.581 279.218 218.458 279.355 231.807 284.712L232.341 284.926L232.469 285.481C237.851 312.479 225.826 330.698 196.693 339.647C165.103 349.13 141.502 368.46 126.465 397.081Z" fill="white"/>
<path d="M118.007 398.918L116.106 397.935C122.964 384.196 132.568 372.01 144.324 362.131C156.081 352.252 169.739 344.89 184.454 340.501C211.302 331.638 222.131 315.127 217.56 290.009C205.444 284.139 191.635 282.768 178.602 286.143H178.452H178.41C170.913 285.887 165.594 283.815 162.284 280.013C158.973 276.212 158.183 271.47 159.037 264.87C156.453 248.552 153.249 232.084 149.554 215.958C142.976 191.225 137.166 165.915 132.296 140.776C129.669 114.483 138.106 95.9222 147.012 76.0372C152.327 64.9324 156.762 53.4274 160.276 41.6282L162.412 42.2049C158.887 54.1118 154.415 65.7181 149.041 76.9129C140.242 96.4135 131.954 114.846 134.496 140.455C139.345 165.466 145.175 190.734 151.711 215.446C155.449 231.7 158.653 248.274 161.259 264.699V264.998C160.468 270.936 161.387 275.528 163.993 278.625C166.598 281.722 171.639 283.751 178.41 284.008C192.013 280.54 206.408 282.055 218.991 288.279L219.483 288.514V289.048C224.481 315.319 212.904 333.304 185.052 342.445C170.606 346.766 157.2 354.007 145.667 363.722C134.134 373.436 124.72 385.415 118.007 398.918Z" fill="white"/>
<path d="M111.493 402.356L109.57 401.438C115.579 388.272 124.282 376.512 135.116 366.918C145.95 357.323 158.676 350.107 172.472 345.734C197.654 336.422 207.607 320.104 202.908 295.84C191.811 288.48 178.535 285.127 165.274 286.335H164.996C151.135 283.943 144.876 276.083 146.393 263.033C133.449 236.527 129.669 185.394 127.17 151.519C126.956 148.422 126.721 145.474 126.508 142.719C124.543 117.089 130.993 95.7297 137.807 73.0894C140.989 62.5168 144.214 51.6025 146.713 40.0901L148.849 40.5173C146.393 52.1151 143.104 63.0935 139.9 73.7088C133.129 96.1783 126.743 117.388 128.686 142.548C128.9 145.303 129.114 148.251 129.349 151.369C131.869 185.202 135.649 236.313 148.572 262.435L148.7 262.713V263.033C147.205 275.079 152.672 282.021 165.381 284.392C179.224 283.163 193.069 286.729 204.596 294.494L204.98 294.729V295.157C210.063 320.509 199.384 338.259 173.262 347.955C159.736 352.203 147.251 359.239 136.611 368.609C125.972 377.979 117.415 389.475 111.493 402.356Z" fill="white"/>
<path d="M106.537 407.055L104.551 406.244C109.379 393.819 116.867 382.601 126.49 373.377C136.113 364.153 147.637 357.145 160.255 352.847C183.301 342.851 192.058 326.682 186.932 303.465C176.963 294.26 164.363 288.405 150.9 286.72H150.686C137.721 282.064 131.869 273.179 133.279 260.321C123.881 236.548 123.368 199.427 122.941 169.567C122.813 160.81 122.706 152.48 122.386 145.218C121.19 118.221 124.927 91.3941 128.537 65.4646C129.797 56.4298 131.1 47.0961 132.189 37.8477L134.325 38.104C133.236 47.3524 131.933 56.7075 130.673 65.8704C127.149 91.565 123.325 118.306 124.522 145.176C124.842 152.502 124.949 160.789 125.077 169.589C125.504 199.363 126.017 236.42 135.35 259.829V260.086V260.342C133.962 272.367 139.152 280.334 151.241 284.712C165.209 286.476 178.265 292.597 188.555 302.205L188.811 302.44V302.761C194.279 326.96 184.881 344.517 160.917 354.919C148.603 359.125 137.356 365.97 127.963 374.975C118.57 383.981 111.258 394.929 106.537 407.055Z" fill="white"/>
<path d="M102.736 412.651L100.6 412.053C103.492 401.108 108.963 391.015 116.554 382.617C124.146 374.219 133.637 367.761 144.236 363.782C163.715 354.577 173.049 339.092 172.002 317.84C169.097 304.149 158.461 297.485 147.205 290.415C135.479 283.068 123.347 275.464 119.011 259.167C112.732 235.673 115.017 206.155 117.238 177.619C118.306 164.057 119.374 151.241 119.374 139.708C119.374 123.39 118.776 106.858 118.199 90.8815C117.537 72.6411 116.854 53.7813 117.067 35.1564H119.203C118.99 53.7386 119.673 72.577 120.335 90.6892C120.912 106.708 121.51 123.24 121.51 139.601C121.51 151.22 120.485 164.078 119.374 177.684C117.238 206.027 114.889 235.352 121.061 258.505C125.184 273.969 136.974 281.359 148.337 288.407C159.699 295.456 171.02 302.632 174.117 317.37C175.313 339.754 165.573 355.816 145.176 365.555C134.847 369.433 125.601 375.735 118.215 383.931C110.83 392.126 105.521 401.976 102.736 412.651Z" fill="white"/>
<path d="M99.6598 418.867L97.5239 418.482C101.369 397.358 113.073 382.044 132.339 373.009C149.041 363.099 156.41 348.126 154.103 328.583C151.583 313.205 141.288 303.828 130.459 293.918C119.203 283.623 107.563 272.986 104.829 255.002C101.497 233.643 106.217 210.875 110.809 188.79C113.949 173.625 117.217 157.948 117.665 143.232C118.349 120.826 113.671 98.9123 109.122 77.7244C105.611 62.6962 102.973 47.4776 101.219 32.1448L103.355 31.9526C105.091 47.2004 107.716 62.3339 111.215 77.2759C115.764 98.6347 120.463 120.634 119.758 143.296C119.288 158.247 116.021 173.967 112.86 189.239C108.31 211.11 103.611 233.708 106.9 254.639C109.592 271.897 120.954 282.277 131.954 292.316C142.634 302.056 153.612 312.116 156.261 328.263C158.674 348.789 150.964 364.445 133.385 374.868C124.509 378.761 116.762 384.837 110.865 392.53C104.968 400.224 101.113 409.283 99.6598 418.867Z" fill="white"/>
<path d="M96.8406 425.616L94.8115 424.954C98.8269 412.416 107.157 401.716 115.23 391.378C127.597 375.487 139.28 360.472 136.013 339.754C133.407 323.158 123.432 310.663 113.778 298.574C102.885 284.926 91.629 270.808 90.4756 250.666C89.3223 230.525 96.5415 211.708 103.504 193.489C109.25 178.538 115.188 162.967 116.32 146.927C118.135 122.151 108.801 97.8016 99.7667 74.4138C94.0853 59.6121 88.1903 44.2979 85.1787 29.0477L87.3146 28.6419C90.2834 43.5931 96.1357 58.9287 101.796 73.6448C110.916 97.3317 120.335 121.83 118.477 147.098C117.281 163.437 111.3 179.136 105.491 194.258C98.6133 212.263 91.4795 230.909 92.6756 250.538C93.8717 270.167 104.85 283.858 115.529 297.228C125.355 309.531 135.521 322.261 138.212 339.412C141.63 361.07 129.114 377.132 117.003 392.681C108.951 402.89 100.749 413.442 96.8406 425.616Z" fill="white"/>
<path d="M94.0425 432.002L91.9066 431.639C94.1493 419.166 99.788 408.679 105.213 398.555C112.112 385.739 118.626 373.608 118.52 357.973C118.392 337.832 108.118 320.659 98.1861 304.042C87.7417 286.592 76.9341 268.544 77.6176 246.843C78.2157 227.364 87.165 211.366 95.7939 195.881C102.671 183.515 109.805 170.763 112.667 156.282C118.327 128.089 103.654 99.66 89.5358 72.214C81.6758 56.9425 73.5381 41.1583 69.3091 25.9295L71.4449 25.3528C75.5885 40.304 83.3204 55.3619 91.5008 71.2528C105.811 99.0192 120.634 127.725 114.867 156.688C111.92 171.49 104.701 184.454 97.7803 196.885C88.8737 212.861 80.4797 227.941 79.8816 246.886C79.2195 267.946 89.8562 285.738 100.151 302.931C110.232 319.783 120.656 337.212 120.784 357.93C120.89 374.099 113.949 387.021 107.221 399.537C101.753 409.554 96.2211 419.871 94.0425 432.002Z" fill="white"/>
<path d="M88.7029 438.047C87.7631 425.061 91.33 413.57 94.7688 402.463C98.0367 391.912 101.411 381.104 100.941 368.823C100.151 348.447 91.031 329.331 82.2098 310.834C72.0217 289.475 61.4918 267.412 63.9481 243.426C65.9772 223.647 77.1905 209.743 88.0408 196.287C96.926 185.266 106.132 173.882 110.233 159.272C118.199 130.929 98.2076 99.4676 78.8992 68.8818C68.5829 52.5851 58.822 37.2068 53.8454 22.9819L55.8531 22.277C60.7656 36.267 70.4411 51.5599 80.6934 67.7498C100.279 98.656 120.506 130.609 112.283 159.849C108.011 174.8 98.7202 186.441 89.7068 197.632C78.5575 211.452 68.0276 224.502 66.0626 243.639C63.6704 267.134 73.6236 287.873 84.1535 309.852C93.0601 328.54 102.287 347.849 103.077 368.673C103.547 381.232 100.13 392.318 96.7979 403.018C93.2737 414.467 89.9203 425.253 90.8388 437.833L88.7029 438.047Z" fill="white"/>
<path d="M84.4312 443.493C83.47 431.985 83.2845 420.425 83.8759 408.892C84.6107 395.948 84.2391 382.964 82.7653 370.083C80.4371 353.851 73.581 336.529 66.319 318.181C55.6396 291.376 44.7253 263.674 48.5912 238.834C51.731 218.564 65.8491 206.945 79.4974 195.71C89.3651 187.594 99.5746 179.2 105.534 167.581C119.972 139.473 91.9495 100.322 67.3442 65.8916C55.1911 49.0609 43.8496 33.2341 38.7235 20.3761L40.7098 19.6072C45.7078 32.2089 57.0066 47.9716 68.9675 64.6528C94.0427 99.6385 122.471 139.409 107.413 168.563C101.241 180.567 90.8816 189.089 80.843 197.355C66.8743 208.846 53.696 219.696 50.663 239.154C46.9039 263.439 57.7755 290.864 68.284 317.391C75.5887 335.866 82.5089 353.295 84.8584 369.784C86.3485 382.786 86.7272 395.89 85.9904 408.956C85.3983 420.39 85.5839 431.85 86.5458 443.258L84.4312 443.493Z" fill="white"/>
<path d="M78.9419 447.808C77.6817 434.181 75.0119 420.362 72.4275 407.013C70.5479 397.294 68.5829 387.256 67.1946 377.324C65.0587 361.583 58.6511 343.641 52.2434 324.632C41.5641 293.811 30.4148 261.944 35.605 235.993C39.8767 214.891 55.7249 204.895 71.1032 195.219C82.2098 188.235 93.6795 181.037 100.728 169.589C114.654 147.205 100.066 128.046 85.969 109.506C83.9826 106.879 81.9962 104.295 80.138 101.71C74.5634 94.0426 69.2023 87.101 64.0121 80.3517C48.9329 60.8725 35.904 44.0418 24.6693 18.1763L26.6343 17.3433C37.7622 42.9738 50.7056 59.6764 65.6995 79.0488C70.8897 85.7768 76.2721 92.7397 81.8681 100.408C83.7263 102.949 85.6913 105.534 87.6777 108.139C101.54 126.358 117.238 147.012 102.629 170.657C95.3241 182.425 83.6408 189.773 72.3421 196.864C56.6434 206.731 41.8204 216.087 37.7836 236.271C32.7216 261.645 43.7 293.234 54.3366 323.842C60.9792 342.958 67.1519 360.984 69.48 376.939C70.8683 386.807 72.812 396.846 74.6915 406.521C77.5602 420.072 79.7415 433.759 81.2273 447.53L78.9419 447.808Z" fill="white"/>
<path d="M71.7653 450.713C71.1032 438.047 66.8741 426.577 62.3888 414.403C58.651 404.236 54.7637 393.706 53.1404 382.365C51.0046 367.114 45.2591 349.066 39.1932 329.95C28.5138 295.99 17.3218 260.897 23.2382 234.071C28.108 212.071 45.259 203.421 61.8334 195.048C73.9011 188.961 86.3747 182.681 94.1706 171.276C109.293 149.063 92.8677 128.793 78.3651 110.937C76.0157 108.054 73.8157 105.32 71.7439 102.607C65.5072 94.4484 59.5053 87.1437 53.7171 80.074C37.5485 60.4025 23.6012 43.4223 11.5549 16.852L13.4986 15.9763C25.4167 42.2689 39.2999 59.1637 55.3617 78.7284C61.1713 85.7981 67.1945 93.1242 73.4313 101.305C75.5672 103.996 77.703 106.708 80.0097 109.592C94.9609 128.046 112.048 148.956 95.9221 172.472C87.8271 184.347 75.1186 190.755 62.816 196.949C45.9212 205.493 29.9662 213.502 25.3313 234.541C19.5217 260.79 30.5642 295.605 41.2222 329.288C47.3095 348.511 53.055 366.645 55.2549 382.066C56.8355 393.194 60.6801 403.617 64.3965 413.698C68.6682 425.445 73.2177 437.598 73.9012 450.585L71.7653 450.713Z" fill="white"/>
<path d="M64.653 451.866H62.5171C62.5171 443.173 59.6764 438.09 56.6007 432.643C54.9805 429.898 53.5531 427.043 52.329 424.1C46.7543 410.045 43.6787 402.314 41.0088 384.821C38.7448 370.04 33.4692 352.377 27.8732 333.666C17.6637 299.492 6.10861 261.047 11.9823 233.28C16.8948 210.256 34.708 202.502 51.9445 195.005C64.5675 189.516 77.5751 183.856 85.7768 172.216C101.347 150.045 84.2176 129.498 69.0956 111.279C66.7248 108.417 64.4607 105.726 62.3889 103.056C55.7037 94.5123 49.2533 86.93 43.0379 79.5612C26.4421 60.082 12.1318 43.2513 0 16.1897L1.94364 15.314C13.9473 42.0979 28.1722 58.8218 44.6612 78.1729C50.898 85.5203 57.3483 93.124 64.0763 101.668C66.2122 104.295 68.3481 106.986 70.7402 109.827C85.5632 127.661 104.017 149.853 87.5282 173.348C78.9847 185.479 65.6996 191.289 52.7989 196.842C35.2847 204.467 18.753 211.644 14.0754 233.601C8.30855 260.705 19.7996 299.044 29.9236 332.876C35.541 351.651 40.838 369.378 43.1234 384.308C45.7718 401.566 48.6125 408.764 54.3153 423.117C55.5357 426 56.9634 428.791 58.5871 431.468C61.6841 437.257 64.7171 442.596 64.653 451.866Z" fill="white"/>
</svg>
