<svg width="329" height="378" viewBox="0 0 329 378" fill="none" xmlns="http://www.w3.org/2000/svg">
<path d="M246.984 378C242.613 378.002 238.28 377.219 234.206 375.69C222.951 371.51 213.541 364.31 204.452 357.342C192.663 348.31 180.486 338.993 164.353 336.58C150.225 334.451 135.054 335.29 120.378 336C109.801 336.738 99.1909 336.936 88.5923 336.593C70.7482 335.677 54.5214 329.677 38.816 323.884C26.5991 319.368 13.9679 314.697 0.548016 312.387L0 312.297V311.755C0.0668319 259.341 0 206.051 0 154.515C0 118.644 0 82.7687 0 46.889V46.4373L0.427724 46.2825C11.9362 42.1793 22.5224 33.1341 32.7744 24.3469C48.1858 11.1727 64.1452 -2.44028 83.6334 0.372635C99.5795 2.69523 112.264 13.1211 124.521 23.2114C136.551 33.0824 148.928 43.2889 164.62 46.2438C177.826 48.7341 192.783 47.8567 207.246 46.9922C215.894 46.476 224.836 45.947 233.07 46.1922C253.266 46.7986 271.11 53.0051 288.353 59.0051C301.064 63.4181 314.203 68.0374 328.452 70.4245L329 70.5278V71.0568C329 104.528 329 137.999 329 171.47C329 225.367 329 281.148 329 335.922V336.4L328.532 336.542C317.839 339.819 307.146 347.38 295.878 355.393C280.066 366.555 263.879 378 246.984 378ZM143.448 333.909C150.523 333.844 157.593 334.31 164.594 335.303C181.034 337.78 193.358 347.213 205.281 356.335C214.29 363.239 223.619 370.374 234.687 374.49C255.619 382.232 275.668 368.039 295.049 354.374C306.304 346.426 316.93 338.89 327.637 335.484C327.703 280.812 327.637 225.238 327.637 171.496C327.637 138.205 327.637 104.915 327.637 71.6245C313.535 69.1471 300.516 64.6181 287.912 60.2439C269.974 53.9987 253.026 48.1019 233.043 47.5083C224.876 47.2631 216.348 47.7793 207.339 48.3083C192.797 49.1728 177.746 50.0632 164.38 47.5341C148.353 44.476 135.816 34.1534 123.679 24.2179C111.008 13.7921 99.0315 3.94685 83.4597 1.67587C64.573 -1.05963 48.8675 12.3598 33.6833 25.3405C23.4714 34.0631 12.9253 43.0825 1.36337 47.2761C1.36337 82.9923 1.36337 118.717 1.36337 154.451C1.36337 205.806 1.36337 258.967 1.36337 311.148C14.7297 313.509 27.2139 318.142 39.3239 322.606C54.9224 328.374 71.0557 334.335 88.6993 335.239C99.2442 335.578 109.8 335.385 120.324 334.658C128.023 334.322 135.736 333.909 143.435 333.909H143.448Z" fill="white"/>
<path d="M67.1661 305.006C52.2893 305.006 41.0081 299.355 29.0986 293.393C20.3169 288.993 11.2545 284.451 0.534668 282.335L0.801991 281.045C11.6956 283.2 20.8516 287.78 29.7135 292.232C41.8635 298.322 53.3319 304.09 68.6096 303.69C86.2265 303.251 104.057 299.122 121.3 295.122C135.401 291.858 149.971 288.477 164.42 287.109C222.27 281.638 277.098 284.09 328.292 287.109L328.211 288.4C277.072 285.419 222.31 282.967 164.553 288.4C150.198 289.755 135.669 293.122 121.621 296.374C104.244 300.387 86.4003 304.542 68.6364 304.98L67.1661 305.006Z" fill="white"/>
<path d="M70.4141 266.632C55.5373 266.632 43.4541 260.025 30.7159 253.071C21.2793 247.909 11.5218 242.58 0.507935 240.167L0.801996 238.877C12.003 241.29 21.854 246.619 31.3843 251.871C45.1516 259.406 58.117 266.503 74.6913 265.084C91.2656 263.664 107.559 256.425 123.211 249.458C136.484 243.548 150.198 237.445 164.353 234.722C171.497 233.229 178.548 231.346 185.472 229.083C192.665 226.727 199.998 224.792 207.433 223.29C232.094 218.799 259.882 225.045 286.762 231.032C301.465 234.322 315.246 237.483 328.318 238.774L328.171 240.064C315.019 238.671 301.144 235.561 286.455 232.322C259.722 226.309 232.067 220.103 207.687 224.58C200.303 226.076 193.019 227.998 185.873 230.335C178.906 232.614 171.81 234.51 164.62 236.012C150.612 238.696 136.965 244.774 123.773 250.658C108.014 257.677 91.6934 264.929 74.8116 266.387C73.3146 266.567 71.8844 266.632 70.4141 266.632Z" fill="white"/>
<path d="M101.638 230.283C91.1453 230.283 80.5057 225.199 70.8953 220.606C69.2245 219.806 67.5938 219.019 65.9898 218.283C61.8195 216.361 57.7962 214.412 53.8665 212.606C35.9823 204.141 20.5308 196.825 0.561401 192.064L0.882192 190.773C20.9318 195.573 37.2521 203.264 54.4546 211.419C58.3844 213.277 62.3943 215.174 66.5646 217.096C68.1685 217.832 69.8126 218.619 71.4968 219.419C83.6735 225.238 97.4676 231.832 110.259 227.638C122.583 223.599 128.598 213.212 134.96 202.232C141.791 190.451 148.848 178.283 164.366 174.993C177.559 172.193 193.064 177.483 208.061 182.593C217.043 185.664 225.531 188.554 233.15 189.599C254.897 192.593 278.061 191.935 300.463 191.302C309.659 191.032 319.176 190.761 328.305 190.761V192.051C319.189 192.051 309.686 192.322 300.503 192.593C278.034 193.225 254.817 193.883 232.963 190.877C225.21 189.819 216.669 186.902 207.566 183.806C192.757 178.761 177.425 173.483 164.62 176.257C149.677 179.419 142.766 191.341 136.096 202.864C129.881 213.574 123.465 224.657 110.7 228.851C107.783 229.811 104.72 230.295 101.638 230.283Z" fill="white"/>
<path d="M89.929 181.754C72.5527 181.754 54.5081 171.354 37.0115 161.251C24.2199 153.87 12.1501 146.902 0.507935 143.883L0.855463 142.593C12.6713 145.664 24.8214 152.683 37.6932 160.115C57.6225 171.612 78.2201 183.509 97.5211 179.702C110.887 177.122 120.939 168.399 131.632 159.225C141.39 150.864 151.468 142.206 164.286 138.438C171.905 136.206 179.644 133.638 187.851 130.928C203.891 125.638 220.398 120.167 235.97 117.238C257.196 113.251 276.256 121.831 294.675 130.141C305.542 135.031 316.77 140.089 328.412 142.58L328.118 143.87C316.342 141.289 305.034 136.257 294.114 131.341C275.04 122.76 257.035 114.657 236.237 118.567C220.732 121.47 204.158 126.928 188.279 132.206C180.059 134.915 172.239 137.483 164.66 139.728C152.123 143.406 142.151 151.96 132.581 160.244C122.222 169.135 111.516 178.309 97.8285 181.019C95.2271 181.516 92.5809 181.762 89.929 181.754Z" fill="white"/>
<path d="M84.3017 111.87C67.2596 111.87 49.8566 107.367 32.9481 102.993C22.2996 100.04 11.4981 97.6281 0.588135 95.7667L0.801991 94.4764C11.7571 96.3434 22.6032 98.764 33.2957 101.728C52.1824 106.618 71.7106 111.664 90.5305 110.347C105.929 109.264 122.008 105.031 137.567 100.928C146.429 98.5925 155.585 96.1796 164.299 94.4764C177.96 91.7538 190.551 86.3473 202.728 81.1344C213.327 76.5924 224.288 71.8827 235.943 68.9408C257.49 63.5214 276.47 74.4247 294.822 84.9666C305.662 91.186 316.863 97.6248 328.398 100.541L328.051 101.831C316.342 98.8635 305.047 92.386 294.14 86.115C276.016 75.7021 257.289 64.9408 236.277 70.2311C224.729 73.1472 213.822 77.8311 203.276 82.3473C191.032 87.5989 178.374 93.0312 164.513 95.7796C155.785 97.5086 146.656 99.9215 137.781 102.231C122.169 106.347 106.009 110.605 90.5037 111.702C88.5255 111.793 86.4136 111.87 84.3017 111.87Z" fill="white"/>
<path d="M274.144 367.665C270.295 346.581 264.708 326.916 258.8 306.116C257.022 299.858 255.177 293.393 253.453 286.942C252.731 284.361 251.849 281.458 250.914 278.451C247.478 267.419 243.589 254.903 245.032 244.606C246.543 233.883 252.825 225.561 258.893 217.509C264.962 209.457 271.137 201.303 272.714 190.709C276.925 162.49 275.548 133.689 274.225 105.844C273.396 88.4634 272.527 70.502 273.048 52.9407H274.385C273.864 70.4375 274.719 88.386 275.548 105.728C276.884 133.638 278.221 162.502 274.037 190.89C272.42 201.806 266.098 210.245 259.976 218.27C253.854 226.296 247.813 234.361 246.356 244.761C244.952 254.787 248.802 267.161 252.197 278.064C253.132 281.084 254.015 283.948 254.75 286.593C256.514 293.045 258.345 299.497 260.096 305.755C266.018 326.593 271.618 346.284 275.481 367.432L274.144 367.665Z" fill="white"/>
<path d="M219.529 367.213C215.733 345.742 210.066 325.755 204.065 304.593C202.773 300 201.471 295.38 200.162 290.735C199.373 287.909 198.504 285.045 197.569 282.013C193.666 269.264 189.241 254.8 191.808 242.012C193.866 231.793 199.547 223.225 205.04 214.916C210.534 206.606 216.469 197.69 218.407 187.135C223.994 156.928 222.082 125.328 220.251 94.7602C219.302 78.9666 218.313 62.6311 218.407 46.8503H219.743C219.65 62.6052 220.626 78.915 221.588 94.6828C223.432 125.328 225.33 157.006 219.73 187.354C217.725 198.167 211.844 207.032 206.15 215.612C200.723 223.793 195.109 232.258 193.118 242.232C190.618 254.8 194.989 268.993 198.865 281.651C199.801 284.684 200.683 287.561 201.472 290.4C202.773 295.045 204.073 299.66 205.374 304.245C211.376 325.445 217.057 345.458 220.866 366.994L219.529 367.213Z" fill="white"/>
<path d="M165.155 46.9019H163.818V335.935H165.155V46.9019Z" fill="white"/>
<path d="M109.19 335.974C108.909 325.935 104.004 317.406 99.2588 309.161C93.4444 299.058 87.4429 288.619 90.183 275.613C92.5756 264.219 100.355 255.38 107.88 246.838C115.9 237.741 124.174 228.335 125.885 215.87C127.422 204.593 123.385 192.361 119.469 180.528C116.95 173.617 115.002 166.524 113.641 159.315C108.174 124.089 107.292 86.6699 106.423 50.4891C106.129 37.7406 105.808 24.5664 105.3 11.8696H106.637C107.145 24.5793 107.466 37.7664 107.76 50.5794C108.629 86.7086 109.511 124.128 114.964 159.238C116.321 166.374 118.251 173.398 120.739 180.244C124.748 192.206 128.758 204.58 127.208 216.141C125.444 229.045 117.036 238.554 108.896 247.78C101.478 256.206 93.8187 264.916 91.5196 275.987C88.8464 288.555 94.5003 298.322 100.448 308.671C105.274 317.058 110.259 325.729 110.553 336.077L109.19 335.974Z" fill="white"/>
<path d="M55.9383 329.845H54.6017C54.6685 320.103 49.5091 312.761 44.5234 305.664C38.6021 297.226 32.4937 288.516 35.314 275.987C37.7868 264.993 45.6596 256.967 53.265 249.212C61.2849 240.98 69.6656 232.438 71.5369 220.425C73.3681 208.58 69.1309 195.29 65.0408 182.438C62.5279 174.515 60.1487 167.044 59.1195 159.948C53.8665 123.818 52.8373 85.8183 51.8348 49.0439C51.5007 36.6181 51.1531 23.7793 50.6452 11.3663H51.9819C52.4898 23.7793 52.8373 36.6181 53.1715 49.0439C54.1739 85.7925 55.2032 123.793 60.4428 159.806C61.4586 166.799 63.8245 174.232 66.324 182.09C70.4542 195.083 74.7314 208.528 72.8601 220.658C70.922 233.109 62.4477 241.767 54.2274 250.129C46.7556 257.767 39.0165 265.613 36.6105 276.296C33.9373 288.322 39.5912 296.426 45.6195 305.019C50.7254 312.206 56.0051 319.716 55.9383 329.845Z" fill="white"/>
</svg>
